HIERARCHY
ROOT Hips
{
	OFFSET 52.887100 -8.121993 84.402702
	CHANNELS 6 Xposition Yposition Zposition Xrotation Yrotation Zrotation
	JOINT spine
	{
		OFFSET 0.000000 -0.342408 5.954384
		CHANNELS 3 Xrotation Yrotation Zrotation
		JOINT spine1
		{
			OFFSET 0.000000 -0.000002 8.856018
			CHANNELS 3 Xrotation Yrotation Zrotation
			JOINT spine2
			{
				OFFSET 0.000000 -0.000001 8.485672
				CHANNELS 3 Xrotation Yrotation Zrotation
				JOINT Neck
				{
					OFFSET 0.000000 -1.038704 21.786301
					CHANNELS 3 Xrotation Yrotation Zrotation
					JOINT Head
					{
						OFFSET 0.000000 -0.000001 6.582199
						CHANNELS 3 Xrotation Yrotation Zrotation
						End Site
						{
							OFFSET 0.000000 5.254357 15.932602
						}
					}
				}
				JOINT RightShoulder
				{
					OFFSET -3.573071 0.497523 9.163864
					CHANNELS 3 Xrotation Yrotation Zrotation
					JOINT RightArm
					{
						OFFSET 0.000000 -0.000002 12.019196
						CHANNELS 3 Xrotation Yrotation Zrotation
						JOINT RightArmRoll
						{
							OFFSET 0.000000 -0.000001 6.067551
							CHANNELS 3 Xrotation Yrotation Zrotation
							JOINT RightForeArm
							{
								OFFSET 0.000000 -0.000003 17.672592
								CHANNELS 3 Xrotation Yrotation Zrotation
								JOINT RightForeArmRoll
								{
									OFFSET 0.000000 -0.000001 6.808716
									CHANNELS 3 Xrotation Yrotation Zrotation
									JOINT RightHand
									{
										OFFSET 0.000000 -0.000002 13.663605
										CHANNELS 3 Xrotation Yrotation Zrotation
										End Site
										{
											OFFSET 0.000000 0.000000 0.100006
										}
									}
								}
							}
						}
					}
				}
				JOINT LeftShoulder
				{
					OFFSET 3.573071 0.497523 9.163864
					CHANNELS 3 Xrotation Yrotation Zrotation
					JOINT LeftArm
					{
						OFFSET 0.000000 -0.000002 12.019196
						CHANNELS 3 Xrotation Yrotation Zrotation
						JOINT LeftArmRoll
						{
							OFFSET 0.000000 -0.000001 6.067551
							CHANNELS 3 Xrotation Yrotation Zrotation
							JOINT LeftForeArm
							{
								OFFSET 0.000000 -0.000003 17.672592
								CHANNELS 3 Xrotation Yrotation Zrotation
								JOINT LeftForeArmRoll
								{
									OFFSET 0.000000 -0.000001 6.808716
									CHANNELS 3 Xrotation Yrotation Zrotation
									JOINT LeftHand
									{
										OFFSET 0.000000 -0.000002 13.663605
										CHANNELS 3 Xrotation Yrotation Zrotation
										End Site
										{
											OFFSET 0.000000 0.000000 0.100006
										}
									}
								}
							}
						}
					}
				}
			}
		}
	}
	JOINT RightUpLeg
	{
		OFFSET -5.277740 0.811858 -0.967796
		CHANNELS 3 Xrotation Yrotation Zrotation
		JOINT RightUpLegRoll
		{
			OFFSET 0.000000 -0.000002 16.021400
			CHANNELS 3 Xrotation Yrotation Zrotation
			JOINT RightLeg
			{
				OFFSET 0.000000 0.000003 -19.840096
				CHANNELS 3 Xrotation Yrotation Zrotation
				JOINT RightLegRoll
				{
					OFFSET 0.000000 -0.000003 19.904999
					CHANNELS 3 Xrotation Yrotation Zrotation
					JOINT RightFoot
					{
						OFFSET 0.000000 -0.000003 16.567497
						CHANNELS 3 Xrotation Yrotation Zrotation
						JOINT RightToeBase
						{
							OFFSET 0.000000 -0.000002 13.849602
							CHANNELS 3 Xrotation Yrotation Zrotation
							End Site
							{
								OFFSET 0.005871 0.773116 6.707275
							}
						}
					}
				}
			}
		}
	}
	JOINT LeftUpLeg
	{
		OFFSET 5.277740 0.811858 -0.967796
		CHANNELS 3 Xrotation Yrotation Zrotation
		JOINT LeftUpLegRoll
		{
			OFFSET 0.000000 -0.000002 16.021500
			CHANNELS 3 Xrotation Yrotation Zrotation
			JOINT LeftLeg
			{
				OFFSET 0.000000 -0.000003 19.839996
				CHANNELS 3 Xrotation Yrotation Zrotation
				JOINT LeftLegRoll
				{
					OFFSET 0.000000 -0.000003 20.089005
					CHANNELS 3 Xrotation Yrotation Zrotation
					JOINT LeftFoot
					{
						OFFSET 0.000000 -0.000002 16.383499
						CHANNELS 3 Xrotation Yrotation Zrotation
						JOINT LeftToeBase
						{
							OFFSET 0.000000 -0.000002 13.849594
							CHANNELS 3 Xrotation Yrotation Zrotation
							End Site
							{
								OFFSET -0.026310 0.773115 6.707275
							}
						}
					}
				}
			}
		}
	}
}
MOTION
Frames: 11
Frame Time: 0.041667
50.179501 -5.941837 83.986794 -0.971652 0.570723 22.570579 -0.553814 -0.014456 0.214951 2.895250 -0.021766 0.430535 4.540300 -0.016617 0.430707 -10.180394 47.179993 -3.241259 8.070163 -56.106835 -10.467057 11.851204 -18.041296 24.583369 -88.119050 -158.535371 -93.657398 -0.000003 -0.000004 0.000002 -2.512280 3.655003 -1.928082 -0.000001 -0.000006 -3.012239 -5.000165 -7.999921 0.000006 -58.009227 69.455237 65.644463 -67.796424 161.786377 109.366225 0.000003 -0.000001 0.000002 114.977410 -0.816484 4.648839 -0.000001 -0.000009 3.000012 -5.000173 7.999915 -0.000008 -3.285206 175.509361 -0.876609 -179.999991 0.000005 -1.056994 170.084674 -0.274827 -0.412044 0.000002 -0.000002 0.252149 71.364583 6.831217 2.134717 25.456957 -7.355622 0.000004 -11.194512 -180.840719 1.252326 -0.000004 -0.000004 -0.974136 -16.567230 1.116121 0.746605 -0.000001 0.000001 -0.226680 69.534474 -6.843254 -2.222359 25.456955 7.355610 0.000001 
50.188702 -5.956025 83.984398 -0.990185 0.549685 22.589597 -0.554488 -0.012478 0.213324 2.893890 -0.016521 0.427275 4.538939 -0.011412 0.427454 -9.914896 47.010915 -3.346573 7.940225 -55.958623 -10.484171 11.852975 -18.307349 24.489565 -87.928017 -159.034944 -93.630747 -0.000002 -0.000002 -0.000000 -2.911904 3.657688 -1.918196 0.000001 -0.000004 -3.012339 -5.000163 -7.999917 0.000007 -57.546106 69.380099 65.157102 -67.976228 161.776937 109.347237 0.000003 -0.000001 0.000002 115.043840 -0.813857 4.647754 -0.000000 -0.000011 3.000012 -5.000169 7.999919 -0.000009 -3.219966 175.513062 -0.881452 -179.999991 0.000005 -1.056995 170.143769 -0.262077 -0.409536 0.000002 -0.000002 0.249155 71.323731 6.831051 2.134894 25.456955 -7.355624 0.000005 -11.177133 -180.850582 1.231566 -0.000004 -0.000004 -0.974291 -16.590070 1.139556 0.749740 -0.000001 0.000001 -0.228329 69.573775 -6.842484 -2.221493 25.456955 7.355613 -0.000001 
50.208199 -5.953436 83.977890 -1.007112 0.530107 22.606618 -0.555565 -0.010651 0.211770 2.891720 -0.011606 0.424159 4.536770 -0.006535 0.424351 -9.647436 46.839200 -3.453012 7.805398 -55.812433 -10.503650 11.855161 -18.578514 24.394839 -87.740767 -159.489111 -93.603392 -0.000003 -0.000003 0.000002 -3.221467 3.659796 -1.910569 -0.000001 -0.000005 -3.012410 -5.000164 -7.999921 0.000007 -57.083538 69.301169 64.670567 -68.150111 161.769848 109.330838 0.000003 -0.000002 0.000002 115.109861 -0.811177 4.647650 -0.000000 -0.000009 3.000010 -5.000172 7.999920 -0.000006 -3.156474 175.516778 -0.885880 -179.999991 0.000005 -1.056994 170.205172 -0.250294 -0.407212 0.000002 -0.000002 0.246027 71.281821 6.830872 2.135234 25.456957 -7.355623 0.000005 -11.162654 -180.858464 1.211968 -0.000004 -0.000004 -0.974477 -16.614712 1.161652 0.752891 -0.000000 0.000001 -0.230017 69.613602 -6.841704 -2.220593 25.456952 7.355616 -0.000002 
50.217403 -5.966063 84.039291 -1.022399 0.511854 22.621233 -0.557147 -0.008944 0.210276 2.888550 -0.007000 0.421189 4.533600 -0.001966 0.421392 -9.376672 46.665058 -3.560796 7.664696 -55.667005 -10.525899 11.858387 -18.854466 24.300338 -87.558736 -159.878759 -93.574917 -0.000003 -0.000002 0.000001 -3.407189 3.661065 -1.906020 0.000001 -0.000009 -3.012459 -5.000162 -7.999921 0.000006 -56.623532 69.219002 64.186839 -68.318161 161.764452 109.315620 0.000001 -0.000001 0.000003 115.176278 -0.808509 4.647546 -0.000001 -0.000011 3.000011 -5.000172 7.999921 -0.000008 -3.094921 175.520521 -0.889702 -179.999991 0.000005 -1.056994 170.268474 -0.239503 -0.404083 0.000002 -0.000002 0.242797 71.239187 6.830743 2.135524 25.456957 -7.355622 0.000005 -11.150477 -180.865376 1.193795 -0.000006 -0.000004 -0.974704 -16.640042 1.182501 0.756026 -0.000001 0.000001 -0.231722 69.653327 -6.840909 -2.219701 25.456952 7.355612 -0.000001 
50.228901 -5.954292 84.021782 -1.036028 0.494785 22.633247 -0.559324 -0.007333 0.208860 2.884179 -0.002679 0.418370 4.529239 0.002320 0.418591 -9.101261 46.488661 -3.669943 7.517164 -55.521276 -10.550848 11.863208 -19.135256 24.206872 -87.383500 -160.184916 -93.545021 -0.000002 -0.000003 0.000000 -3.435317 3.661250 -1.905327 0.000001 -0.000009 -3.012469 -5.000160 -7.999917 0.000007 -56.168020 69.134560 63.707947 -68.481218 161.759466 109.302028 0.000001 -0.000002 0.000003 115.243992 -0.805843 4.646443 -0.000001 -0.000008 3.000011 -5.000171 7.999916 -0.000008 -3.035494 175.526258 -0.892814 -179.999991 0.000005 -1.056995 170.333389 -0.230675 -0.401285 0.000002 -0.000002 0.239497 71.196376 6.830652 2.135834 25.456959 -7.355622 0.000006 -11.139496 -180.872275 1.177266 -0.000004 -0.000005 -0.974968 -16.664572 1.202172 0.759079 -0.000000 0.000001 -0.233390 69.692334 -6.840150 -2.218760 25.456955 7.355615 0.000000 
50.236599 -5.964476 84.041794 -1.047960 0.478761 22.642256 -0.562191 -0.005789 0.207515 2.878440 0.001377 0.415712 4.523490 0.006343 0.415945 -8.819858 46.310086 -3.780471 7.361841 -55.374068 -10.578732 11.870366 -19.420543 24.115545 -87.216414 -160.388660 -93.513418 -0.000002 -0.000004 0.000001 -3.272071 3.660111 -1.909332 -0.000001 -0.000007 -3.012420 -5.000162 -7.999917 0.000007 -55.719041 69.048493 63.235899 -68.639508 161.753769 109.289440 0.000001 -0.000001 0.000002 115.314015 -0.803234 4.645391 0.000000 -0.000010 3.000014 -5.000173 7.999918 -0.000008 -2.978385 175.532023 -0.894923 -179.999991 0.000005 -1.055997 170.399518 -0.222840 -0.399687 0.000002 -0.000001 0.236154 71.153803 6.830625 2.136241 25.456957 -7.355625 0.000006 -11.128904 -180.876236 1.161853 -0.000005 -0.000005 -0.975281 -16.687294 1.220747 0.762008 -0.000001 0.000001 -0.234992 69.729866 -6.839395 -2.217909 25.456955 7.355615 -0.000002 
50.246700 -5.954967 84.040192 -1.058190 0.463646 22.647963 -0.565851 -0.004284 0.206245 2.871110 0.005191 0.413220 4.516171 0.010127 0.413464 -8.531117 46.129383 -3.892487 7.197902 -55.224412 -10.609580 11.880322 -19.710300 24.027432 -87.058923 -160.470869 -93.479752 -0.000001 -0.000001 0.000002 -2.883689 3.657457 -1.918900 -0.000001 -0.000007 -3.012331 -5.000164 -7.999919 0.000007 -55.278275 68.961654 62.772375 -68.793672 161.746570 109.277160 0.000000 -0.000001 0.000001 115.387221 -0.800239 4.645254 0.000001 -0.000009 3.000012 -5.000172 7.999917 -0.000009 -2.923781 175.539796 -0.895912 -179.999991 0.000005 -1.055995 170.466482 -0.215974 -0.396271 0.000002 -0.000002 0.232804 71.112016 6.830676 2.136509 25.456957 -7.355623 0.000006 -11.117917 -180.880198 1.148196 -0.000005 -0.000004 -0.975633 -16.707013 1.238302 0.764757 -0.000001 0.000001 -0.236495 69.765314 -6.838734 -2.216905 25.456948 7.355614 -0.000000 
50.256199 -5.972037 83.987289 -1.066680 0.449296 22.650063 -0.570392 -0.002791 0.205057 2.862020 0.008786 0.410895 4.507081 0.013694 0.411143 -8.233770 45.946887 -4.005903 7.024439 -55.071023 -10.643475 11.893828 -20.004357 23.943419 -86.912293 -160.412621 -93.443579 -0.000001 -0.000002 0.000001 -2.236381 3.653117 -1.934955 -0.000002 -0.000006 -3.012160 -5.000163 -7.999918 0.000006 -54.847140 68.874781 62.318871 -68.944162 161.736366 109.265610 0.000004 -0.000001 0.000001 115.464362 -0.797362 4.644175 -0.000000 -0.000011 3.000013 -5.000172 7.999917 -0.000011 -2.871867 175.548579 -0.895547 -179.999991 0.000005 -1.055000 170.533991 -0.211085 -0.394196 0.000002 -0.000002 0.229473 71.071342 6.830795 2.136925 25.456957 -7.355621 0.000006 -11.105516 -180.881209 1.135756 -0.000005 -0.000004 -0.976036 -16.722226 1.254917 0.767263 -0.000001 0.000001 -0.237860 69.797935 -6.838154 -2.216091 25.456955 7.355614 -0.000001 
50.274002 -5.956105 84.006004 -1.073398 0.435573 22.648062 -0.575911 -0.001282 0.203938 2.850970 0.012183 0.408743 4.496029 0.017065 0.408988 -7.926498 45.762708 -4.120765 6.840630 -54.912897 -10.680270 11.911461 -20.302684 23.864751 -86.777751 -160.194806 -93.404743 0.000001 -0.000003 0.000001 -1.296356 3.646989 -1.958535 0.000001 -0.000007 -3.011929 -5.000161 -7.999916 0.000007 -54.427687 68.788659 61.877402 -69.091482 161.722296 109.253923 0.000002 0.000001 0.000001 115.546583 -0.794143 4.643032 -0.000001 -0.000011 3.000010 -5.000171 7.999916 -0.000009 -2.822827 175.559385 -0.893663 -179.999991 0.000005 -1.054998 170.601651 -0.208161 -0.391449 0.000001 -0.000001 0.226192 71.032192 6.831021 2.137362 25.456955 -7.355623 0.000005 -11.091110 -180.880266 1.124775 -0.000006 -0.000005 -0.976495 -16.732034 1.270664 0.769483 -0.000001 0.000001 -0.239045 69.827189 -6.837594 -2.215386 25.456955 7.355610 0.000001 
50.286098 -5.967253 84.064789 -1.078329 0.422337 22.641845 -0.582504 0.000271 0.202901 2.837770 0.015406 0.406776 4.482830 0.020264 0.407006 -7.608018 45.576975 -4.237048 6.645669 -54.748843 -10.720140 11.933877 -20.605016 23.792385 -86.656420 -159.798614 -93.362914 -0.000002 -0.000004 0.000002 -0.029821 3.639062 -1.990836 -0.000001 -0.000007 -3.011609 -5.000165 -7.999919 0.000007 -54.021295 68.704347 61.449463 -69.235654 161.703718 109.240584 -0.000001 -0.000003 0.000003 115.634529 -0.790643 4.641882 -0.000000 -0.000010 3.000009 -5.000173 7.999917 -0.000008 -2.776861 175.571174 -0.890019 -179.999991 0.000005 -1.054003 170.669106 -0.207218 -0.389046 0.000002 -0.000002 0.222996 70.995206 6.831297 2.137878 25.456959 -7.355620 0.000005 -11.073596 -180.877384 1.115298 -0.000005 -0.000005 -0.977009 -16.734935 1.285642 0.771356 -0.000000 0.000001 -0.240019 69.852263 -6.837213 -2.214674 25.456953 7.355612 0.000000 
50.293701 -5.955616 84.049995 -1.079574 0.411081 22.632445 -0.590602 0.001809 0.201975 2.821580 0.018292 0.405069 4.466640 0.023131 0.405278 -7.273700 45.388663 -4.358252 6.434197 -54.582586 -10.766335 11.962523 -20.911338 23.727703 -86.550900 -159.185195 -93.315930 -0.000003 -0.000002 0.000000 1.635322 3.629989 -2.034645 -0.000001 -0.000007 -3.011179 -5.000165 -7.999921 0.000006 -53.631895 68.622111 61.039188 -69.374259 161.684033 109.228652 0.000001 0.000002 0.000002 115.725780 -0.787172 4.640752 -0.000002 -0.000008 3.000010 -5.000172 7.999918 -0.000008 -2.735428 175.586023 -0.885225 -179.999991 0.000005 -1.054003 170.739553 -0.209242 -0.387122 0.000002 -0.000002 0.219696 70.958603 6.831726 2.138296 25.456957 -7.355622 0.000006 -11.056983 -180.871537 1.107755 -0.000003 -0.000005 -0.977598 -16.733024 1.299226 0.772953 -0.000001 0.000001 -0.240844 69.874167 -6.836848 -2.214061 25.456950 7.355613 -0.000001 
